<svg width="282" height="282" viewBox="0 0 282 282" fill="none" xmlns="http://www.w3.org/2000/svg">
<g clip-path="url(#clip0_316_197)">
<path d="M117.229 249.635H176.044V279.041H117.229V249.635Z" fill="#C1CED4"/>
<path d="M103.115 276.086H190.165V282.001H103.115V276.086Z" fill="#2E3133"/>
<path d="M244.549 92.7015C243.894 92.0447 243.116 91.5238 242.259 91.1688C241.402 90.8138 240.484 90.6316 239.556 90.6328H53.6922C52.7665 90.6317 51.8497 90.8139 50.9947 91.1689C50.1398 91.524 49.3636 92.0449 48.7111 92.7015C48.0557 93.3561 47.536 94.1338 47.1821 94.9899C46.8281 95.8459 46.6468 96.7635 46.6484 97.6898V226.095H246.618V97.6903C246.619 96.7634 246.437 95.8454 246.082 94.9892C245.727 94.133 245.206 93.3555 244.549 92.7015ZM233.679 213.163H59.5843V103.57H233.678V213.163H233.679Z" fill="#C1CED4"/>
<path d="M46.648 226.094V242.571C46.648 244.373 47.3332 246.183 48.7106 247.555C49.3639 248.211 50.14 248.732 50.9947 249.088C51.8494 249.444 52.7659 249.628 53.6918 249.629H239.556C241.43 249.627 243.226 248.881 244.549 247.555C245.206 246.902 245.727 246.125 246.081 245.27C246.436 244.414 246.618 243.497 246.616 242.571V226.094H46.648ZM240.7 242.571C240.7 242.784 240.645 243.095 240.376 243.363C240.27 243.473 240.143 243.561 240.002 243.621C239.862 243.681 239.711 243.713 239.558 243.714H53.6923C53.5205 243.714 53.1906 243.669 52.8871 243.367C52.7828 243.263 52.7004 243.139 52.645 243.002C52.5896 242.866 52.5621 242.719 52.5644 242.572V232.012H240.701V242.571H240.7ZM268.155 112.943L241.95 139.143L226.38 123.565L194.126 150.598L186.893 143.365L172.446 157.814L157.162 142.54L125.891 173.812L114.51 162.441C114.51 162.441 91.6793 185.268 91.2271 185.728L68.8395 163.35L20.9277 211.261L25.1097 215.444L68.8395 171.715L91.2282 194.09L114.51 170.805L125.891 182.175L157.162 150.905L172.446 166.178L186.893 151.728L193.776 158.613L226.026 131.579L241.945 147.508L272.338 117.125L268.155 112.943Z" fill="#2E3133"/>
<path d="M273.204 131.171H267.287V117.991H254.107V112.074H273.204V131.171Z" fill="#2E3133"/>
<path d="M202.247 176.321L191.059 165.129L168.132 184.342L163.114 179.324L152.843 189.59L141.991 178.74L119.764 200.962L111.675 192.88L95.1204 209.434L79.2087 193.528L46.6484 226.093H222.355V156.211L202.247 176.321Z" fill="#F95632"/>
<path d="M8.79688 63.0898V138.021H23.1724V157.793L42.9472 138.021H136.517V63.0898H8.79688Z" fill="#63D1DB"/>
<path d="M59.5843 138.022V103.569H136.516V90.6328H53.6922C52.7665 90.6317 51.8497 90.8139 50.9947 91.1689C50.1398 91.524 49.3636 92.0449 48.7111 92.7015C48.0557 93.3561 47.536 94.1338 47.1821 94.9899C46.8281 95.8459 46.6468 96.7635 46.6484 97.6898V138.022H59.5843Z" fill="#4BA9B6"/>
<path d="M18.5566 112.558H26.1407V122.791H18.5566V112.558ZM28.5646 103.069H36.1504V122.786H28.5646V103.069ZM38.5682 107.454H46.1594V122.795H38.5682V107.454ZM48.5806 85.5744H56.1636V122.792H48.5806V85.5744ZM58.5842 95.4551H66.1683V122.796H58.5842V95.4551ZM68.5961 78.1687H76.1763V122.789H68.5961V78.1687ZM78.5969 99.6002H86.1837V122.799H78.5969V99.6002ZM88.6049 104.179H96.1878V122.792H88.6049V104.179ZM98.6085 85.5744H106.195V122.792H98.6085V85.5744ZM108.614 68.6504H116.203V122.793H108.614V68.6504Z" fill="white"/>
<path d="M174.653 20.6523C159.821 20.6523 147.809 32.6668 147.809 47.4951C147.809 62.3234 159.823 74.3466 174.653 74.3466C189.479 74.3466 201.506 62.324 201.506 47.4951C201.506 32.6662 189.479 20.6523 174.653 20.6523Z" fill="#C1CED4"/>
<path d="M176.863 53.3374L136.885 18.552L138.823 16.3214C147.837 5.94884 160.903 0 174.673 0C176.747 0 178.842 0.138243 180.898 0.411974L183.828 0.802468L176.863 53.3374ZM145.307 18.0404L172.444 41.6529L177.173 5.99345C165.226 5.24386 153.648 9.71884 145.307 18.0404Z" fill="#2E3133"/>
<path d="M173.201 79.5308C173.686 79.5534 174.161 79.6057 174.646 79.604C182.222 79.6085 189.167 76.9703 194.657 72.5867L181.998 56.5566C179.933 58.2366 177.354 59.156 174.692 59.1607C174.475 59.1678 174.276 59.1463 174.054 59.1353L173.201 79.5308Z" fill="#F95632"/>
<path d="M185.308 42.7329C187.51 47.6634 186.011 53.3022 181.994 56.5533L197.559 75.7613C210.077 65.6338 214.73 48.006 207.854 32.6445L185.308 42.7329Z" fill="#63D1DB"/>
<path d="M185.683 128.848C190.139 128.848 193.752 125.235 193.752 120.778C193.752 116.322 190.139 112.709 185.683 112.709C181.226 112.709 177.613 116.322 177.613 120.778C177.613 125.235 181.226 128.848 185.683 128.848Z" fill="#63D1DB"/>
<path d="M249.244 83.1367C249.244 91.396 242.549 98.0922 234.289 98.0922C226.035 98.0922 219.336 91.3965 219.336 83.1367C219.336 74.8812 226.036 68.1855 234.289 68.1855C242.547 68.1855 249.244 74.8796 249.244 83.1367Z" fill="#F95632"/>
<path d="M58.3435 71.1017C48.9364 71.1017 41.2812 63.4472 41.2812 54.0384C41.2812 44.6269 48.9358 36.9707 58.3435 36.9707C67.7511 36.9707 75.4068 44.6269 75.4068 54.0384C75.4068 63.4466 67.7506 71.1017 58.3435 71.1017ZM58.3435 42.887C52.1975 42.887 47.1976 47.8897 47.1976 54.0384C47.1976 60.1861 52.1975 65.1854 58.3435 65.1854C64.4911 65.1854 69.4905 60.1855 69.4905 54.0384C69.4905 47.8891 64.4911 42.887 58.3435 42.887Z" fill="#2E3133"/>
<path d="M107.609 41.3225C107.609 44.6641 104.902 47.3711 101.561 47.3711C98.2263 47.3711 95.5176 44.6641 95.5176 41.3225C95.5176 37.9847 98.2247 35.2793 101.561 35.2793C104.901 35.2793 107.609 37.9853 107.609 41.3225Z" fill="#C1CED4"/>
<path d="M59.5849 213.163V213.156L46.6484 226.094H222.355V213.163H59.5849Z" fill="#BC452A"/>
<path d="M246.617 134.475L241.95 139.142L233.679 130.865V139.235L241.946 147.507L246.617 142.837V134.475ZM46.6484 193.903L59.5849 180.967V172.602L46.6484 185.539V193.903Z" fill="#23282A"/>
<path d="M244.55 92.7015C243.895 92.0447 243.117 91.5238 242.26 91.1688C241.403 90.8138 240.485 90.6316 239.557 90.6328H221.363C223.955 95.0885 228.768 98.093 234.289 98.093C238.564 98.093 242.41 96.2897 245.134 93.4147C244.949 93.1724 244.774 92.9229 244.55 92.7015Z" fill="#BC452A"/>
<path d="M64.8235 63.0898C62.937 64.4522 60.6691 65.1853 58.3421 65.185C55.9242 65.185 53.6892 64.4023 51.8607 63.0898H43.9043C46.9275 67.8936 52.2611 71.1013 58.341 71.1013C64.422 71.1013 69.7562 67.8936 72.7788 63.0898H64.8235Z" fill="#12282C"/>
<path d="M173.422 74.2846C173.834 74.3028 174.238 74.3469 174.654 74.3469C180.992 74.3469 186.808 72.1371 191.402 68.4629L182 56.5566C179.935 58.2366 177.356 59.156 174.694 59.1607C174.477 59.1679 174.278 59.1464 174.056 59.1354L173.422 74.2846Z" fill="#BC452A"/>
<path d="M199.151 36.5391L185.308 42.733C187.51 47.6635 186.011 53.3022 181.994 56.5534L191.551 68.3475C197.619 63.4237 201.506 55.9156 201.506 47.4944C201.506 43.5878 200.652 39.8877 199.151 36.5391Z" fill="#4BA9B6"/>
<path d="M181.09 21.4615C179.17 20.986 177.204 20.7244 175.226 20.6816L172.444 41.6532L156.489 27.7706C155.037 29.1084 153.721 30.5921 152.592 32.2202L176.863 53.3388L181.09 21.4615Z" fill="#23282A"/>
</g>
<defs>
<clipPath id="clip0_316_197">
<rect width="282" height="282" fill="white"/>
</clipPath>
</defs>
</svg>
