<svg width="282" height="282" viewBox="0 0 282 282" fill="none" xmlns="http://www.w3.org/2000/svg">
<g clip-path="url(#clip0_316_296)">
<path d="M25.6362 0H256.358C270.516 0 281.994 11.4779 281.994 25.6362V230.726C281.994 244.884 270.516 256.362 256.358 256.362H25.6362C11.4779 256.362 0 244.884 0 230.726V25.6362C0 11.4779 11.4779 0 25.6362 0Z" fill="#F0EAF9"/>
<path d="M12.8178 51.2734H269.176C276.255 51.2734 281.994 57.0121 281.994 64.0912V64.0918C281.994 71.171 276.255 76.9096 269.176 76.9096H12.8178C5.73866 76.9096 0 71.171 0 64.0918V64.0912C0 57.0121 5.73866 51.2734 12.8178 51.2734Z" fill="#E1D5F3"/>
<path d="M25.6362 0H256.36C270.518 0 281.996 11.4779 281.996 25.6362V64.0902H0V25.6362C0 11.4779 11.4779 0 25.6362 0Z" fill="#5628B4"/>
<path d="M25.6362 0H256.363C263.442 0 269.18 5.73866 269.18 12.8178C269.18 19.8969 263.442 25.6362 256.363 25.6362H25.6362C18.557 25.6362 12.8184 19.8975 12.8184 12.8184C12.8184 5.73926 18.557 0 25.6362 0Z" fill="#6F48BF"/>
<path d="M19.2276 51.2734H262.771C266.311 51.2734 269.18 54.1431 269.18 57.6826C269.18 61.2222 266.311 64.0918 262.771 64.0918H19.2276C15.688 64.0918 12.8184 61.2222 12.8184 57.6826C12.8184 54.1431 15.688 51.2734 19.2276 51.2734Z" fill="#421198"/>
<path d="M275.588 89.7266C272.049 89.7266 269.179 92.5956 269.179 96.1352V230.725C269.179 237.804 263.44 243.543 256.361 243.543H185.862C182.323 243.543 179.453 246.412 179.453 249.952C179.453 253.491 182.323 256.361 185.862 256.361H256.361C270.519 256.361 281.997 244.883 281.997 230.725V96.1358C281.997 92.5956 279.128 89.7266 275.588 89.7266Z" fill="#D9C9EF"/>
<path d="M6.4092 115.359C9.94877 115.359 12.8184 118.229 12.8184 121.769V224.312C12.8184 227.852 9.94877 230.721 6.4092 230.721C2.86963 230.721 0 227.852 0 224.312V121.769C0 118.229 2.86963 115.359 6.4092 115.359Z" fill="#DFD2F2"/>
<path d="M32.0479 38.4571C35.5876 38.4571 38.4571 35.5876 38.4571 32.0479C38.4571 28.5082 35.5876 25.6387 32.0479 25.6387C28.5082 25.6387 25.6387 28.5082 25.6387 32.0479C25.6387 35.5876 28.5082 38.4571 32.0479 38.4571Z" fill="#F7B236"/>
<path d="M57.6787 38.4571C61.2184 38.4571 64.0879 35.5876 64.0879 32.0479C64.0879 28.5082 61.2184 25.6387 57.6787 25.6387C54.139 25.6387 51.2695 28.5082 51.2695 32.0479C51.2695 35.5876 54.139 38.4571 57.6787 38.4571Z" fill="#B39DDD"/>
<path d="M83.3174 38.4571C86.8571 38.4571 89.7266 35.5876 89.7266 32.0479C89.7266 28.5082 86.8571 25.6387 83.3174 25.6387C79.7777 25.6387 76.9082 28.5082 76.9082 32.0479C76.9082 35.5876 79.7777 38.4571 83.3174 38.4571Z" fill="#D80E70"/>
<path d="M243.543 179.453H115.363C108.283 179.453 102.545 173.714 102.545 166.635V102.546C102.545 95.4672 108.283 89.7285 115.363 89.7285H243.543C250.622 89.7285 256.361 95.4672 256.361 102.546V166.635C256.361 173.714 250.622 179.453 243.543 179.453ZM64.0889 140.999H38.4545C31.3754 140.999 25.6367 135.26 25.6367 128.181V102.546C25.6367 95.4672 31.3754 89.7285 38.4545 89.7285H64.0889C71.1681 89.7285 76.9067 95.4672 76.9067 102.546V128.181C76.9067 135.26 71.1681 140.999 64.0889 140.999ZM64.0889 230.723H38.4545C31.3754 230.723 25.6367 224.984 25.6367 217.905V192.27C25.6367 185.191 31.3754 179.453 38.4545 179.453H64.0889C71.1681 179.453 76.9067 185.191 76.9067 192.27V217.905C76.9067 224.984 71.1681 230.723 64.0889 230.723ZM108.954 192.269H147.406C150.945 192.269 153.815 195.138 153.815 198.678C153.815 202.217 150.945 205.087 147.406 205.087H108.954C105.414 205.087 102.545 202.217 102.545 198.678C102.545 195.138 105.414 192.269 108.954 192.269ZM237.132 192.269H249.95C253.489 192.269 256.359 195.138 256.359 198.678C256.359 202.217 253.489 205.087 249.95 205.087H237.132C233.592 205.087 230.723 202.217 230.723 198.678C230.723 195.138 233.592 192.269 237.132 192.269ZM173.046 192.269H211.498C215.037 192.269 217.907 195.138 217.907 198.678C217.907 202.217 215.037 205.087 211.498 205.087H173.046C169.506 205.087 166.637 202.217 166.637 198.678C166.637 195.138 169.506 192.269 173.046 192.269ZM108.954 217.907H160.228C163.767 217.907 166.637 220.776 166.637 224.316C166.637 227.855 163.767 230.725 160.228 230.725H108.954C105.414 230.725 102.545 227.855 102.545 224.316C102.545 220.776 105.414 217.907 108.954 217.907ZM185.862 217.907H198.68C202.219 217.907 205.089 220.776 205.089 224.316C205.089 227.855 202.219 230.725 198.68 230.725H185.862C182.322 230.725 179.453 227.855 179.453 224.316C179.453 220.776 182.322 217.907 185.862 217.907ZM70.4975 166.637H32.0459C28.5063 166.637 25.6367 163.767 25.6367 160.227C25.6367 156.688 28.5063 153.818 32.0459 153.818H70.4975C74.0371 153.818 76.9067 156.688 76.9067 160.227C76.9067 163.767 74.0371 166.637 70.4975 166.637Z" fill="#B39DDD"/>
<path d="M140.997 192.27H128.181C92.785 192.27 64.0905 220.963 64.0905 256.36V256.7C64.1362 263.702 57.9565 269.178 50.9549 269.178H44.8623C41.3228 269.178 38.4531 272.048 38.4531 275.587C38.4531 279.127 41.3228 281.997 44.8623 281.997H89.7255C125.121 281.996 153.815 253.301 153.815 217.906V192.27H140.997Z" fill="#F7B236"/>
<path d="M153.815 217.906V192.27H140.997C140.997 227.665 112.303 256.36 76.9071 256.36H64.0911V256.7C64.1368 263.701 57.9565 269.178 50.9555 269.178H44.8623C41.3228 269.178 38.4531 272.047 38.4531 275.587C38.4531 279.126 41.3228 281.996 44.8623 281.996H89.7255C125.121 281.995 153.815 253.301 153.815 217.906Z" fill="#F58B04"/>
<path d="M277.701 68.387C275.775 66.4612 273.351 65.1098 270.7 64.4841C268.05 63.8584 265.277 63.9832 262.694 64.8444C217.517 80.807 180.297 113.676 158.869 156.531L153.816 166.635V192.271H179.453L189.556 187.219C232.412 165.792 265.281 128.571 281.243 83.3949C282.105 80.8111 282.23 78.0385 281.604 75.3877C280.978 72.737 279.627 70.3129 277.701 68.387Z" fill="#D80E70"/>
<path d="M229.2 104.075C224.195 99.069 209.341 105.807 196.023 119.124C182.705 132.442 175.966 147.296 180.972 152.302C185.977 157.307 200.831 150.569 214.149 137.252C227.467 123.934 234.206 109.08 229.2 104.075Z" fill="#E976AF"/>
<path d="M262.693 64.8424C260.474 65.6265 258.368 66.6365 256.188 67.5005C254.519 124.972 210.928 172.511 153.816 179.145V192.27H179.453L189.556 187.217C232.412 165.789 265.281 128.569 281.244 83.3928C283.805 75.7086 279.651 67.4032 271.967 64.8424C268.957 63.839 265.703 63.839 262.693 64.8424Z" fill="#A60068"/>
<path d="M140.998 192.27L153.816 205.089L179.452 192.27L153.816 166.635L140.998 192.27Z" fill="#5628B4"/>
<path d="M147.927 199.199L153.816 205.088L179.452 192.271L167.154 179.972C161.845 174.663 153.237 174.663 147.927 179.972C145.378 182.522 143.945 185.98 143.945 189.586C143.945 193.192 145.378 196.65 147.927 199.199Z" fill="#420F9B"/>
<path d="M114.554 206.482C110.655 202.583 99.4211 207.495 89.4626 217.453C79.5041 227.411 74.592 238.644 78.491 242.543C82.39 246.443 93.6237 241.531 103.582 231.573C113.541 221.615 118.453 210.381 114.554 206.482Z" fill="#FBDA9E"/>
</g>
<defs>
<clipPath id="clip0_316_296">
<rect width="282" height="282" fill="white"/>
</clipPath>
</defs>
</svg>
