<svg width="282" height="282" viewBox="0 0 282 282" fill="none" xmlns="http://www.w3.org/2000/svg">
<g clip-path="url(#clip0_316_317)">
<path d="M269.064 120.117C252.152 75.9271 212.327 78.1093 209.73 53.7427C204.646 6.03683 193.302 -0.356085 184.065 0.0145908C169.289 0.607782 147.53 21.1574 125.316 19.4847C89.1633 16.7622 61.9652 -20.4106 26.5428 16.1161C-6.33389 50.0173 36.6871 95.8907 19.6514 131.109C11.1463 148.691 0.54537 175.489 5.9243 196.664C23.0211 263.971 76.915 285.915 157.285 281.443C268.466 275.255 293.271 183.366 269.064 120.117Z" fill="url(#paint0_linear_316_317)"/>
<path d="M236.258 71.7656V227.268C236.258 230.314 233.791 232.776 230.75 232.776H33.9121C32.3864 232.776 31.0095 232.159 30.0181 231.156C29.8914 231.035 29.7702 230.903 29.6601 230.765C29.4343 230.495 29.236 230.203 29.0707 229.895V229.889C28.9386 229.658 28.8284 229.416 28.7403 229.162V229.157C28.5177 228.55 28.4039 227.909 28.4043 227.262V71.7656L132.33 68.4609L236.258 71.7656Z" fill="#4D4DFF"/>
<path d="M225.994 163.058C223.126 161.535 220.12 160.287 217.017 159.329L214.968 146.446C214.527 143.687 212.148 141.654 209.355 141.654H193.84C191.042 141.654 188.662 143.687 188.227 146.446L186.178 159.329C183.073 160.287 180.066 161.535 177.195 163.058L166.631 155.391C164.373 153.749 161.25 153.992 159.278 155.969L148.307 166.941C147.349 167.897 146.765 169.163 146.658 170.512C146.551 171.861 146.928 173.204 147.723 174.299L155.39 184.863C153.87 187.734 152.624 190.742 151.666 193.846L138.778 195.89C136.019 196.33 133.986 198.71 133.986 201.502V217.018C133.986 219.816 136.019 222.195 138.778 222.63L151.666 224.679C152.528 227.464 153.62 230.172 154.933 232.776H187.704C179.674 228.022 174.287 219.27 174.287 209.263C174.287 194.177 186.514 181.949 201.595 181.949C216.681 181.949 228.908 194.177 228.908 209.263C228.908 219.27 223.521 228.022 215.491 232.776H230.753C233.793 232.776 236.261 230.314 236.261 227.268V155.606L225.994 163.058Z" fill="#2C27FF"/>
<path d="M162.593 191.637V232.775H77.916V191.637C77.916 188.591 80.378 186.129 83.4238 186.129H157.085C160.126 186.129 162.593 188.591 162.593 191.637Z" fill="#FFC599"/>
<path d="M157.086 186.129H154.745C153.523 188.596 152.487 191.174 151.666 193.845L138.778 195.889C136.019 196.329 133.986 198.709 133.986 201.501V217.017C133.986 219.815 136.019 222.194 138.778 222.629L151.666 224.678C152.528 227.463 153.62 230.171 154.933 232.775H162.594V191.637C162.594 188.591 160.126 186.129 157.086 186.129Z" fill="#FFAB66"/>
<path d="M60.8784 71.7656V232.77H33.9121C32.3864 232.77 31.0095 232.153 30.0181 231.156C29.8914 231.035 29.7702 230.903 29.6601 230.765C29.4398 230.495 29.2415 230.203 29.0707 229.895V229.889C28.9441 229.653 28.8339 229.41 28.7403 229.162V229.157C28.5177 228.55 28.4039 227.909 28.4043 227.262V71.7656H60.8784Z" fill="#B3B3FF"/>
<path d="M49.5802 95.0959H41.9023C41.172 95.0959 40.4715 94.8057 39.955 94.2893C39.4386 93.7728 39.1484 93.0723 39.1484 92.342V84.6641C39.1484 83.9337 39.4386 83.2332 39.955 82.7168C40.4715 82.2003 41.172 81.9102 41.9023 81.9102H49.5802C50.3106 81.9102 51.0111 82.2003 51.5275 82.7168C52.044 83.2332 52.3341 83.9337 52.3341 84.6641V92.342C52.3341 93.0723 52.044 93.7728 51.5275 94.2893C51.0111 94.8057 50.3106 95.0959 49.5802 95.0959ZM49.5802 119.616H41.9023C41.172 119.616 40.4715 119.325 39.955 118.809C39.4386 118.292 39.1484 117.592 39.1484 116.862V109.184C39.1484 108.453 39.4386 107.753 39.955 107.236C40.4715 106.72 41.172 106.43 41.9023 106.43H49.5802C50.3106 106.43 51.0111 106.72 51.5275 107.236C52.044 107.753 52.3341 108.453 52.3341 109.184V116.862C52.3341 117.592 52.044 118.292 51.5275 118.809C51.0111 119.325 50.3106 119.616 49.5802 119.616ZM49.5802 144.135H41.9023C41.172 144.135 40.4715 143.845 39.955 143.329C39.4386 142.812 39.1484 142.112 39.1484 141.381V133.703C39.1484 132.973 39.4386 132.273 39.955 131.756C40.4715 131.24 41.172 130.95 41.9023 130.95H49.5802C50.3106 130.95 51.0111 131.24 51.5275 131.756C52.044 132.273 52.3341 132.973 52.3341 133.703V141.381C52.3341 142.112 52.044 142.812 51.5275 143.329C51.0111 143.845 50.3106 144.135 49.5802 144.135Z" fill="#FFC599"/>
<path d="M236.257 71.7665V34.998C236.257 31.9561 233.791 29.4902 230.749 29.4902H33.9102C30.8682 29.4902 28.4023 31.9561 28.4023 34.998V71.7665H236.257Z" fill="#FF9D33"/>
<path d="M181.232 59.1641H51.0039C50.2735 59.1641 49.5731 58.874 49.0566 58.3575C48.5401 57.8411 48.25 57.1406 48.25 56.4102V45.9492C48.25 45.2188 48.5401 44.5184 49.0566 44.0019C49.5731 43.4855 50.2735 43.1953 51.0039 43.1953H181.232C181.962 43.1953 182.663 43.4855 183.179 44.0019C183.695 44.5184 183.986 45.2188 183.986 45.9492V56.4102C183.986 56.7718 183.915 57.1299 183.776 57.464C183.638 57.7982 183.435 58.1017 183.179 58.3575C182.924 58.6132 182.62 58.8161 182.286 58.9545C181.952 59.0929 181.594 59.1641 181.232 59.1641Z" fill="#FFC599"/>
<path d="M199.291 48.7031C200.812 48.7031 202.045 47.4702 202.045 45.9492C202.045 44.4283 200.812 43.1953 199.291 43.1953C197.77 43.1953 196.537 44.4283 196.537 45.9492C196.537 47.4702 197.77 48.7031 199.291 48.7031Z" fill="white"/>
<path d="M199.291 59.1641C200.812 59.1641 202.045 57.9311 202.045 56.4102C202.045 54.8892 200.812 53.6562 199.291 53.6562C197.77 53.6562 196.537 54.8892 196.537 56.4102C196.537 57.9311 197.77 59.1641 199.291 59.1641Z" fill="white"/>
<path d="M208.82 48.7031C210.341 48.7031 211.574 47.4702 211.574 45.9492C211.574 44.4283 210.341 43.1953 208.82 43.1953C207.299 43.1953 206.066 44.4283 206.066 45.9492C206.066 47.4702 207.299 48.7031 208.82 48.7031Z" fill="white"/>
<path d="M208.82 59.1641C210.341 59.1641 211.574 57.9311 211.574 56.4102C211.574 54.8892 210.341 53.6562 208.82 53.6562C207.299 53.6562 206.066 54.8892 206.066 56.4102C206.066 57.9311 207.299 59.1641 208.82 59.1641Z" fill="white"/>
<path d="M218.352 48.7031C219.873 48.7031 221.105 47.4702 221.105 45.9492C221.105 44.4283 219.873 43.1953 218.352 43.1953C216.831 43.1953 215.598 44.4283 215.598 45.9492C215.598 47.4702 216.831 48.7031 218.352 48.7031Z" fill="white"/>
<path d="M218.352 59.1641C219.873 59.1641 221.105 57.9311 221.105 56.4102C221.105 54.8892 219.873 53.6562 218.352 53.6562C216.831 53.6562 215.598 54.8892 215.598 56.4102C215.598 57.9311 216.831 59.1641 218.352 59.1641Z" fill="white"/>
<path d="M236.26 35.002V227.269C236.26 230.314 233.793 232.776 230.752 232.776H33.9141C30.8682 232.776 28.4062 230.314 28.4062 227.269V35.002C28.4062 31.9616 30.8682 29.4941 33.9141 29.4941H230.752C233.793 29.4941 236.26 31.9611 236.26 35.002Z" fill="url(#paint1_linear_316_317)"/>
<path d="M264.411 182.672L251.526 180.625C250.568 177.521 249.32 174.514 247.8 171.643L255.467 161.08C256.261 159.985 256.639 158.643 256.533 157.295C256.427 155.946 255.843 154.68 254.886 153.724L243.914 142.751C242.958 141.795 241.692 141.211 240.343 141.105C238.995 140.998 237.653 141.376 236.558 142.171L225.995 149.838C223.124 148.317 220.117 147.07 217.013 146.111L214.966 133.227C214.754 131.891 214.072 130.675 213.043 129.796C212.014 128.918 210.706 128.436 209.353 128.436H193.837C192.484 128.436 191.176 128.918 190.147 129.796C189.118 130.675 188.437 131.891 188.224 133.227L186.178 146.111C183.073 147.069 180.066 148.317 177.195 149.837L166.632 142.17C165.537 141.376 164.195 140.998 162.847 141.104C161.498 141.211 160.232 141.795 159.276 142.751L148.304 153.723C147.347 154.679 146.763 155.946 146.657 157.294C146.55 158.642 146.929 159.985 147.723 161.079L155.391 171.643C153.87 174.513 152.623 177.521 151.665 180.624L138.78 182.672C137.444 182.884 136.227 183.566 135.349 184.594C134.471 185.623 133.988 186.931 133.988 188.284V203.801C133.988 206.595 136.02 208.975 138.78 209.413L151.664 211.46C152.622 214.564 153.87 217.571 155.391 220.442L147.724 231.005C146.929 232.1 146.551 233.442 146.658 234.79C146.764 236.139 147.348 237.405 148.304 238.362L159.276 249.334C160.233 250.29 161.499 250.874 162.847 250.98C164.196 251.087 165.538 250.709 166.633 249.914L177.196 242.247C180.067 243.768 183.074 245.015 186.178 245.974L188.225 258.858C188.437 260.194 189.119 261.411 190.148 262.289C191.176 263.167 192.485 263.65 193.837 263.65H209.354C212.148 263.65 214.528 261.618 214.966 258.858L217.014 245.973C220.117 245.014 223.124 243.767 225.995 242.247L236.559 249.914C237.654 250.709 238.996 251.087 240.344 250.98C241.693 250.874 242.959 250.29 243.915 249.334L254.888 238.362C255.844 237.405 256.428 236.139 256.534 234.79C256.641 233.442 256.263 232.1 255.468 231.005L247.801 220.442C249.322 217.572 250.57 214.564 251.528 211.46L264.412 209.413C265.748 209.201 266.964 208.519 267.842 207.49C268.72 206.462 269.203 205.153 269.203 203.801V188.285C269.202 186.932 268.72 185.624 267.841 184.595C266.963 183.566 265.746 182.884 264.411 182.672ZM228.907 196.046C228.907 211.127 216.679 223.354 201.591 223.354C186.511 223.354 174.283 211.127 174.283 196.046C174.283 180.959 186.511 168.731 201.591 168.731C216.679 168.731 228.907 180.959 228.907 196.046Z" fill="#9494FF"/>
<path d="M200.144 250.579L197.868 236.254C200.348 236.482 202.843 236.481 205.323 236.253L203.047 250.579H200.144ZM227.377 227.101C229.294 225.507 231.06 223.741 232.653 221.825L241.185 233.579L239.132 235.632L227.377 227.101ZM162.006 233.579L170.537 221.826C172.13 223.742 173.896 225.507 175.812 227.101L164.058 235.632L162.006 233.579ZM147.059 197.494V194.591L161.384 192.315C161.156 194.795 161.156 197.291 161.383 199.77L147.059 197.494ZM241.808 199.77C242.035 197.29 242.035 194.795 241.807 192.315L256.133 194.591V197.494L241.808 199.77ZM232.653 170.261C231.059 168.345 229.293 166.579 227.377 164.985L239.132 156.453L241.185 158.506L232.653 170.261ZM162.006 158.506L164.059 156.453L175.813 164.985C173.897 166.578 172.131 168.345 170.538 170.261L162.006 158.506ZM205.323 155.831C204.095 155.718 202.85 155.66 201.593 155.66C200.337 155.66 199.095 155.718 197.869 155.831L200.145 141.506H203.048L205.323 155.831Z" fill="#B3B3FF"/>
<path d="M90.9031 88.5039H80.668C79.9376 88.5039 79.2371 88.2138 78.7207 87.6973C78.2042 87.1809 77.9141 86.4804 77.9141 85.75C77.9141 85.0196 78.2042 84.3191 78.7207 83.8027C79.2371 83.2862 79.9376 82.9961 80.668 82.9961H90.9031C91.6335 82.9961 92.334 83.2862 92.8504 83.8027C93.3669 84.3191 93.657 85.0196 93.657 85.75C93.657 86.4804 93.3669 87.1809 92.8504 87.6973C92.334 88.2138 91.6335 88.5039 90.9031 88.5039Z" fill="#FF6C6C"/>
<path d="M123.95 99.7285H80.668C79.9376 99.7285 79.2371 99.4384 78.7207 98.9219C78.2042 98.4055 77.9141 97.705 77.9141 96.9746C77.9141 96.2442 78.2042 95.5438 78.7207 95.0273C79.2371 94.5109 79.9376 94.2207 80.668 94.2207H123.95C124.68 94.2207 125.381 94.5109 125.897 95.0273C126.414 95.5438 126.704 96.2442 126.704 96.9746C126.704 97.705 126.414 98.4055 125.897 98.9219C125.381 99.4384 124.68 99.7285 123.95 99.7285Z" fill="#FFAB66"/>
<path d="M101.919 110.955H80.668C79.9376 110.955 79.2371 110.665 78.7207 110.148C78.2042 109.632 77.9141 108.932 77.9141 108.201C77.9141 107.471 78.2042 106.77 78.7207 106.254C79.2371 105.737 79.9376 105.447 80.668 105.447H101.919C102.649 105.447 103.35 105.737 103.866 106.254C104.383 106.77 104.673 107.471 104.673 108.201C104.673 108.932 104.383 109.632 103.866 110.148C103.35 110.665 102.649 110.955 101.919 110.955Z" fill="#9494FF"/>
<path d="M183.7 99.7285H137.113C136.383 99.7285 135.682 99.4384 135.166 98.9219C134.649 98.4055 134.359 97.705 134.359 96.9746C134.359 96.2442 134.649 95.5438 135.166 95.0273C135.682 94.5109 136.383 94.2207 137.113 94.2207H183.7C184.43 94.2207 185.131 94.5109 185.647 95.0273C186.164 95.5438 186.454 96.2442 186.454 96.9746C186.454 97.705 186.164 98.4055 185.647 98.9219C185.131 99.4384 184.43 99.7285 183.7 99.7285ZM161.669 110.955H115.082C114.351 110.955 113.651 110.664 113.135 110.148C112.618 109.631 112.328 108.931 112.328 108.201C112.328 107.47 112.618 106.77 113.135 106.253C113.651 105.737 114.351 105.447 115.082 105.447H161.669C162.399 105.447 163.099 105.737 163.616 106.253C164.132 106.77 164.423 107.47 164.423 108.201C164.423 108.931 164.132 109.631 163.616 110.148C163.099 110.664 162.399 110.955 161.669 110.955ZM123.95 122.18H80.668C79.9376 122.18 79.2371 121.89 78.7207 121.373C78.2042 120.857 77.9141 120.156 77.9141 119.426C77.9141 118.696 78.2042 117.995 78.7207 117.479C79.2371 116.962 79.9376 116.672 80.668 116.672H123.95C124.68 116.672 125.381 116.962 125.897 117.479C126.414 117.995 126.704 118.696 126.704 119.426C126.704 120.156 126.414 120.857 125.897 121.373C125.381 121.89 124.68 122.18 123.95 122.18Z" fill="#FFAB66"/>
<path d="M101.919 133.406H80.668C79.9376 133.406 79.2371 133.116 78.7207 132.6C78.2042 132.083 77.9141 131.383 77.9141 130.652C77.9141 129.922 78.2042 129.221 78.7207 128.705C79.2371 128.189 79.9376 127.898 80.668 127.898H101.919C102.649 127.898 103.35 128.189 103.866 128.705C104.383 129.221 104.673 129.922 104.673 130.652C104.673 131.383 104.383 132.083 103.866 132.6C103.35 133.116 102.649 133.406 101.919 133.406Z" fill="#9494FF"/>
<path d="M183.7 122.18H137.113C136.383 122.18 135.682 121.89 135.166 121.373C134.65 120.857 134.359 120.156 134.359 119.426C134.359 118.695 134.65 117.995 135.166 117.478C135.682 116.962 136.383 116.672 137.113 116.672H183.7C184.43 116.672 185.131 116.962 185.647 117.478C186.164 117.995 186.454 118.695 186.454 119.426C186.454 120.156 186.164 120.857 185.647 121.373C185.131 121.89 184.43 122.18 183.7 122.18Z" fill="#FFAB66"/>
<path d="M161.669 133.406H115.082C114.352 133.406 113.651 133.116 113.135 132.6C112.618 132.083 112.328 131.383 112.328 130.652C112.328 129.922 112.618 129.221 113.135 128.705C113.651 128.189 114.352 127.898 115.082 127.898H161.669C162.399 127.898 163.1 128.189 163.616 128.705C164.133 129.221 164.423 129.922 164.423 130.652C164.423 131.383 164.133 132.083 163.616 132.6C163.1 133.116 162.399 133.406 161.669 133.406Z" fill="#9494FF"/>
<path d="M89.2061 176.563C88.8443 176.563 88.4861 176.492 88.1519 176.354C87.8178 176.215 87.5143 176.012 87.259 175.756L78.7208 167.218C78.4651 166.962 78.2622 166.658 78.1237 166.324C77.9853 165.99 77.9141 165.632 77.9141 165.271C77.9141 164.909 77.9853 164.551 78.1237 164.217C78.2622 163.883 78.4651 163.579 78.7208 163.323L87.259 154.785C87.5147 154.53 87.8182 154.327 88.1523 154.188C88.4864 154.05 88.8444 153.979 89.2061 153.979C89.5677 153.979 89.9257 154.05 90.2598 154.188C90.5939 154.327 90.8974 154.53 91.1531 154.785C91.4088 155.041 91.6117 155.344 91.7501 155.679C91.8886 156.013 91.9598 156.371 91.9598 156.732C91.9598 157.094 91.8886 157.452 91.7501 157.786C91.6117 158.12 91.4088 158.424 91.1531 158.679L84.5624 165.271L91.1531 171.862C91.4088 172.117 91.6117 172.421 91.7501 172.755C91.8886 173.089 91.9598 173.447 91.9598 173.809C91.9598 174.17 91.8886 174.528 91.7501 174.862C91.6117 175.197 91.4088 175.5 91.1531 175.756C90.8978 176.012 90.5943 176.215 90.2601 176.354C89.926 176.492 89.5678 176.563 89.2061 176.563ZM111.06 176.563C110.698 176.563 110.34 176.492 110.006 176.354C109.672 176.215 109.368 176.012 109.113 175.756C108.857 175.5 108.654 175.197 108.516 174.862C108.377 174.528 108.306 174.17 108.306 173.809C108.306 173.447 108.377 173.089 108.516 172.755C108.654 172.421 108.857 172.117 109.113 171.862L115.704 165.271L109.113 158.68C108.857 158.424 108.654 158.121 108.516 157.787C108.377 157.453 108.306 157.094 108.306 156.733C108.306 156.371 108.377 156.013 108.516 155.679C108.654 155.345 108.857 155.041 109.113 154.786C109.369 154.53 109.672 154.327 110.006 154.189C110.34 154.05 110.698 153.979 111.06 153.979C111.422 153.979 111.78 154.05 112.114 154.189C112.448 154.327 112.751 154.53 113.007 154.786L121.545 163.324C121.801 163.58 122.004 163.883 122.142 164.217C122.281 164.551 122.352 164.909 122.352 165.271C122.352 165.633 122.281 165.991 122.142 166.325C122.004 166.659 121.801 166.962 121.545 167.218L113.007 175.756C112.752 176.012 112.448 176.215 112.114 176.354C111.78 176.492 111.422 176.563 111.06 176.563Z" fill="white"/>
<path d="M22.4535 25.0842C21.7231 25.0842 21.0226 24.794 20.5062 24.2776C19.9897 23.7611 19.6996 23.0606 19.6996 22.3303C19.6984 21.4054 19.3305 20.5188 18.6765 19.8649C18.0225 19.211 17.1358 18.8432 16.2109 18.8422C14.6897 18.8422 13.457 17.6095 13.457 16.0883C13.457 14.567 14.6897 13.3344 16.2109 13.3344C17.1358 13.3332 18.0225 12.9653 18.6765 12.3113C19.3305 11.6573 19.6984 10.7706 19.6996 9.8457C19.6996 8.32445 20.9322 7.0918 22.4535 7.0918C23.9747 7.0918 25.2074 8.32445 25.2074 9.8457C25.2084 10.7705 25.5762 11.6572 26.2301 12.3112C26.884 12.9652 27.7707 13.3332 28.6955 13.3344C30.2168 13.3344 31.4494 14.567 31.4494 16.0883C31.4494 17.6095 30.2168 18.8422 28.6955 18.8422C27.7707 18.8432 26.8841 19.211 26.2302 19.8649C25.5762 20.5189 25.2084 21.4055 25.2074 22.3303C25.2074 23.0606 24.9173 23.7611 24.4008 24.2776C23.8843 24.794 23.1839 25.0842 22.4535 25.0842Z" fill="#8383FF"/>
<path d="M256.133 80.7639C255.402 80.7639 254.702 80.4737 254.185 79.9573C253.669 79.4408 253.379 78.7403 253.379 78.0099C253.378 77.0851 253.01 76.1984 252.356 75.5444C251.702 74.8904 250.815 74.5225 249.891 74.5213C248.369 74.5213 247.137 73.2886 247.137 71.7674C247.137 70.2461 248.369 69.0135 249.891 69.0135C250.815 69.0125 251.702 68.6446 252.356 67.9907C253.01 67.3368 253.378 66.4502 253.379 65.5254C253.379 64.0041 254.611 62.7715 256.133 62.7715C257.654 62.7715 258.887 64.0041 258.887 65.5254C258.888 66.4502 259.256 67.3368 259.91 67.9908C260.564 68.6447 261.45 69.0125 262.375 69.0135C263.896 69.0135 265.129 70.2461 265.129 71.7674C265.129 73.2886 263.896 74.5213 262.375 74.5213C261.45 74.5225 260.564 74.8904 259.91 75.5444C259.256 76.1984 258.888 77.0851 258.887 78.0099C258.887 78.7403 258.596 79.4408 258.08 79.9573C257.563 80.4737 256.863 80.7639 256.133 80.7639Z" fill="#FF6C6C"/>
<path d="M137.291 259.223C136.929 259.223 136.571 259.152 136.237 259.014C135.903 258.875 135.599 258.672 135.344 258.416L132.334 255.406L129.324 258.416C129.068 258.671 128.765 258.874 128.431 259.013C128.097 259.151 127.738 259.222 127.377 259.222C127.015 259.222 126.657 259.151 126.323 259.013C125.989 258.874 125.685 258.671 125.43 258.416C125.174 258.16 124.971 257.856 124.833 257.522C124.694 257.188 124.623 256.83 124.623 256.469C124.623 256.107 124.694 255.749 124.833 255.415C124.971 255.081 125.174 254.777 125.43 254.522L130.387 249.565C130.642 249.309 130.946 249.106 131.28 248.967C131.614 248.829 131.972 248.758 132.334 248.758C132.695 248.758 133.054 248.829 133.388 248.967C133.722 249.106 134.025 249.309 134.281 249.565L139.238 254.522C139.623 254.907 139.886 255.397 139.993 255.932C140.099 256.466 140.045 257.02 139.836 257.523C139.628 258.026 139.275 258.457 138.822 258.759C138.368 259.062 137.836 259.223 137.291 259.223Z" fill="#FFAB66"/>
<path d="M262.375 137.014C262.013 137.014 261.655 136.943 261.321 136.805C260.987 136.666 260.683 136.463 260.428 136.207L257.418 133.197L254.408 136.207C254.152 136.462 253.849 136.665 253.515 136.804C253.181 136.942 252.822 137.013 252.461 137.013C252.099 137.013 251.741 136.942 251.407 136.804C251.073 136.665 250.769 136.462 250.514 136.207C250.258 135.951 250.055 135.647 249.917 135.313C249.778 134.979 249.707 134.621 249.707 134.26C249.707 133.898 249.778 133.54 249.917 133.206C250.055 132.872 250.258 132.568 250.514 132.313L255.471 127.356C255.726 127.1 256.03 126.897 256.364 126.758C256.698 126.62 257.056 126.549 257.418 126.549C257.779 126.549 258.138 126.62 258.472 126.758C258.806 126.897 259.109 127.1 259.365 127.356L264.322 132.313C264.707 132.698 264.97 133.188 265.077 133.723C265.183 134.257 265.129 134.811 264.92 135.314C264.712 135.817 264.359 136.248 263.905 136.55C263.452 136.853 262.92 137.014 262.375 137.014Z" fill="#FF6C6C"/>
<path d="M109.629 266.404C109.267 266.405 108.909 266.334 108.575 266.195C108.241 266.057 107.937 265.854 107.682 265.597L104.672 262.588L101.662 265.597C101.406 265.853 101.103 266.056 100.768 266.194C100.434 266.333 100.076 266.404 99.7147 266.404C99.3531 266.404 98.995 266.333 98.6609 266.194C98.3269 266.056 98.0233 265.853 97.7677 265.597C97.5119 265.342 97.309 265.038 97.1706 264.704C97.0322 264.37 96.9609 264.012 96.9609 263.65C96.9609 263.289 97.0322 262.931 97.1706 262.596C97.309 262.262 97.5119 261.959 97.7677 261.703L102.725 256.746C102.98 256.49 103.284 256.288 103.618 256.149C103.952 256.011 104.31 255.939 104.672 255.939C105.033 255.939 105.391 256.011 105.726 256.149C106.06 256.288 106.363 256.49 106.619 256.746L111.576 261.703C111.961 262.088 112.224 262.579 112.331 263.113C112.437 263.647 112.383 264.201 112.174 264.705C111.966 265.208 111.613 265.638 111.159 265.941C110.706 266.243 110.174 266.405 109.629 266.404Z" fill="#8383FF"/>
</g>
<defs>
<linearGradient id="paint0_linear_316_317" x1="36.0669" y1="250.832" x2="223.141" y2="27.8852" gradientUnits="userSpaceOnUse">
<stop stop-color="white" stop-opacity="0"/>
<stop offset="0.253" stop-color="#EEEEFF" stop-opacity="0.403"/>
<stop offset="0.629" stop-color="#D9D9FF"/>
</linearGradient>
<linearGradient id="paint1_linear_316_317" x1="132.333" y1="232.776" x2="132.333" y2="29.4941" gradientUnits="userSpaceOnUse">
<stop stop-color="#FF4D4D" stop-opacity="0.4"/>
<stop offset="0.146" stop-color="#FF4D4D" stop-opacity="0.342"/>
<stop offset="1" stop-color="#FF4D4D" stop-opacity="0"/>
</linearGradient>
<clipPath id="clip0_316_317">
<rect width="282" height="282" fill="white"/>
</clipPath>
</defs>
</svg>
