<svg width="282" height="282" viewBox="0 0 282 282" fill="none" xmlns="http://www.w3.org/2000/svg">
<g clip-path="url(#clip0_316_189)">
<path d="M182.308 107.953C182.308 112.579 178.674 116.215 174.046 116.215H107.952C103.325 116.215 99.6905 112.579 99.6905 107.953C99.6905 103.325 103.325 99.6914 107.952 99.6914H174.046C178.674 99.6914 182.308 103.325 182.308 107.953ZM182.308 141C182.308 145.625 178.674 149.262 174.046 149.262H107.952C103.325 149.262 99.6905 145.625 99.6905 141C99.6905 136.375 103.325 132.738 107.952 132.738H174.046C178.674 132.738 182.308 136.375 182.308 141ZM182.308 174.047C182.308 178.672 178.674 182.309 174.046 182.309H107.952C103.325 182.309 99.6905 178.672 99.6905 174.047C99.6905 169.421 103.325 165.785 107.952 165.785H174.046C178.674 165.785 182.308 169.421 182.308 174.047ZM117.943 228.802C92.7435 222.176 71.8139 205.035 60.1527 182.309H66.6437C68.1397 182.309 69.6078 181.903 70.8911 181.134C72.1745 180.365 73.225 179.262 73.9305 177.943C74.6339 176.624 74.9672 175.14 74.8948 173.647C74.8225 172.154 74.3473 170.709 73.5196 169.464L50.8021 130.341L44.6014 103.14C41.5358 98.5425 33.9196 98.5425 30.8539 103.14L17.1852 143.205L1.3849 169.464C0.557262 170.709 0.0820457 172.154 0.00970311 173.647C-0.0626395 175.14 0.270592 176.624 0.974021 177.943C1.67955 179.262 2.73006 180.365 4.01342 181.134C5.29677 181.903 6.76482 182.309 8.26086 182.309H24.2743C39.5739 225.519 78.0702 257.658 124.858 263.758L117.943 228.802Z" fill="#575F64"/>
<path d="M228.802 164.056C220.65 195.065 196.551 219.611 165.785 228.357V215.355C165.785 213.859 165.379 212.391 164.61 211.108C163.841 209.825 162.738 208.774 161.419 208.069C160.1 207.365 158.616 207.032 157.123 207.105C155.63 207.177 154.184 207.653 152.94 208.482L117.944 228.802L103.14 237.398C98.5419 240.463 98.5419 248.08 103.14 251.145L124.859 263.758L152.94 280.612C154.185 281.441 155.631 281.916 157.124 281.989C158.617 282.062 160.102 281.729 161.421 281.025C162.74 280.319 163.842 279.268 164.611 277.985C165.379 276.702 165.785 275.234 165.785 273.738V262.436C217.177 252.004 256.9 209.74 263.757 157.141L228.802 164.056Z" fill="#FF641A"/>
<path d="M281.024 120.58C280.319 119.261 279.269 118.158 277.986 117.389C276.703 116.62 275.235 116.214 273.739 116.215H262.437C252.005 64.824 209.738 25.1011 157.139 18.2422L164.054 53.1975C195.063 61.3491 219.61 85.448 228.355 116.215H215.354C213.858 116.214 212.39 116.62 211.107 117.389C209.823 118.158 208.773 119.261 208.067 120.58C207.364 121.899 207.03 123.384 207.103 124.876C207.176 126.369 207.652 127.815 208.48 129.059L228.801 164.055L237.396 178.859C240.462 183.459 248.078 183.459 251.144 178.859L263.756 157.14L280.611 129.059C281.439 127.815 281.915 126.369 281.988 124.876C282.06 123.384 281.727 121.899 281.024 120.58Z" fill="#00C8C8"/>
<path d="M178.86 30.8539L157.141 18.241L129.059 1.3849C127.815 0.557262 126.369 0.0820457 124.876 0.00970311C123.384 -0.0626395 121.899 0.270592 120.58 0.974021C119.261 1.67955 118.158 2.73006 117.389 4.01342C116.621 5.29677 116.215 6.76482 116.215 8.26086V19.5607C59.6496 31.045 17.0742 81.0455 17.0742 140.999C17.0742 141.744 17.1734 142.462 17.186 143.204L30.8548 119.663C33.9204 115.065 41.5366 115.065 44.6023 119.663L50.803 130.34C55.1233 93.5846 81.4429 63.5262 116.215 53.6425V66.6437C116.215 68.1397 116.621 69.6078 117.389 70.8911C118.158 72.1745 119.261 73.225 120.58 73.9305C121.899 74.634 123.384 74.9673 124.876 74.8949C126.369 74.8226 127.815 74.3473 129.059 73.5196L164.056 53.1969L178.86 44.6014C183.458 41.5358 183.458 33.9196 178.86 30.8539Z" fill="#FFDA2D"/>
<path d="M182.309 174.047C182.309 178.672 178.675 182.309 174.047 182.309H141V165.785H174.047C178.675 165.785 182.309 169.421 182.309 174.047ZM182.309 141C182.309 145.625 178.675 149.262 174.047 149.262H141V132.738H174.047C178.675 132.738 182.309 136.375 182.309 141ZM174.047 116.215H141V99.6914H174.047C178.675 99.6914 182.309 103.325 182.309 107.953C182.309 112.579 178.675 116.215 174.047 116.215Z" fill="#32393F"/>
</g>
<defs>
<clipPath id="clip0_316_189">
<rect width="282" height="282" fill="white"/>
</clipPath>
</defs>
</svg>
