<svg width="282" height="282" viewBox="0 0 282 282" fill="none" xmlns="http://www.w3.org/2000/svg">
<g clip-path="url(#clip0_316_223)">
<path d="M41.1368 163.124C40.5307 163.123 39.9496 162.882 39.5209 162.454C39.0923 162.025 38.8512 161.444 38.8505 160.838V132.195H2.83707C2.46448 132.195 2.09553 132.269 1.75129 132.411C1.40704 132.554 1.09426 132.763 0.830798 133.026C0.567337 133.29 0.358363 133.602 0.215812 133.947C0.0732614 134.291 -7.23012e-05 134.66 5.34892e-08 135.032V250.761C-7.23012e-05 251.133 0.0732614 251.502 0.215812 251.847C0.358363 252.191 0.567337 252.504 0.830798 252.767C1.09426 253.031 1.40704 253.24 1.75129 253.382C2.09553 253.525 2.46448 253.598 2.83707 253.598H97.0262C97.3988 253.598 97.7677 253.525 98.112 253.382C98.4562 253.24 98.769 253.031 99.0325 252.767C99.2959 252.504 99.5049 252.191 99.6474 251.847C99.79 251.502 99.8633 251.133 99.8632 250.761V163.124H41.1368Z" fill="#FED2A4"/>
<path d="M17.3061 250.761V135.032C17.306 134.66 17.3794 134.291 17.5219 133.947C17.6645 133.602 17.8734 133.29 18.1369 133.026C18.4004 132.763 18.7131 132.554 19.0574 132.411C19.4016 132.269 19.7706 132.195 20.1432 132.195H2.83707C2.46448 132.195 2.09553 132.269 1.75129 132.411C1.40704 132.554 1.09426 132.763 0.830798 133.026C0.567337 133.29 0.358363 133.602 0.215812 133.947C0.0732614 134.291 -7.23012e-05 134.66 5.34892e-08 135.032V250.76C-7.23012e-05 251.133 0.0732614 251.502 0.215812 251.846C0.358363 252.19 0.567337 252.503 0.830798 252.767C1.09426 253.03 1.40704 253.239 1.75129 253.382C2.09553 253.524 2.46448 253.597 2.83707 253.597H20.1432C19.7706 253.597 19.4017 253.524 19.0575 253.382C18.7133 253.239 18.4005 253.03 18.1371 252.767C17.8736 252.503 17.6647 252.191 17.5221 251.847C17.3795 251.502 17.3061 251.133 17.3061 250.761Z" fill="#FFBD86"/>
<path d="M52.5627 226.249H20.9941C18.7123 226.249 16.8633 224.4 16.8633 222.118C16.8633 219.836 18.7123 217.987 20.9941 217.987H52.5622C54.8441 217.987 56.693 219.836 56.693 222.118C56.693 224.4 54.8441 226.249 52.5627 226.249ZM78.8691 211.638H20.9941C18.7123 211.638 16.8633 209.789 16.8633 207.507C16.8633 205.225 18.7123 203.376 20.9941 203.376H78.8691C81.151 203.376 83 205.225 83 207.507C83 209.789 81.151 211.638 78.8691 211.638ZM78.8691 197.028H20.9941C18.7123 197.028 16.8633 195.179 16.8633 192.897C16.8633 190.615 18.7123 188.766 20.9941 188.766H78.8691C81.151 188.766 83 190.615 83 192.897C83 195.179 81.151 197.028 78.8691 197.028ZM78.8691 182.417H20.9941C18.7123 182.417 16.8633 180.568 16.8633 178.286C16.8633 176.004 18.7123 174.155 20.9941 174.155H78.8691C81.151 174.155 83 176.004 83 178.286C83 180.568 81.151 182.417 78.8691 182.417ZM41.1368 163.124C40.5307 163.124 39.9496 162.883 39.5209 162.454C39.0923 162.026 38.8512 161.445 38.8505 160.839V159.545H20.9941C18.7123 159.545 16.8633 161.394 16.8633 163.676C16.8633 165.958 18.7123 167.807 20.9941 167.807H78.8691C81.151 167.807 83 165.958 83 163.676C83 163.489 82.9829 163.306 82.9592 163.125L41.1368 163.124Z" fill="#0593FC"/>
<path d="M186.08 116.269C190.984 116.269 195.751 116.867 200.315 117.986V44.7082C200.315 44.3356 200.242 43.9666 200.099 43.6224C199.957 43.2781 199.748 42.9654 199.484 42.7019C199.221 42.4384 198.908 42.2295 198.564 42.0869C198.219 41.9444 197.851 41.871 197.478 41.8711H92.776V65.786C92.776 69.3248 89.8971 72.2032 86.3589 72.2032H38.2988V160.837C38.2988 161.21 38.3721 161.579 38.5146 161.923C38.6572 162.267 38.8662 162.58 39.1296 162.843C39.3931 163.107 39.7059 163.316 40.0501 163.458C40.3944 163.601 40.7633 163.674 41.1359 163.674H127.593C133.307 136.63 157.359 116.269 186.08 116.269Z" fill="#C4E2FF"/>
<path d="M186.08 116.269L186.13 116.27V57.7591C186.13 57.3076 185.951 56.8746 185.632 56.5553C185.312 56.236 184.879 56.0566 184.428 56.0566H92.7762V65.7862C92.7762 69.325 89.8973 72.2033 86.3591 72.2033H52.4844V147.787C52.4844 148.238 52.6637 148.671 52.9829 148.99C53.302 149.31 53.7349 149.489 54.1863 149.489H132.537C142.333 129.818 162.652 116.269 186.08 116.269Z" fill="#0593FC"/>
<path d="M76.0093 147.789V72.2051H52.4844V147.789C52.4844 148.012 52.5284 148.234 52.614 148.44C52.6995 148.647 52.825 148.834 52.983 148.992C53.1411 149.15 53.3288 149.276 53.5354 149.361C53.7419 149.447 53.9633 149.491 54.1868 149.491H77.7118C77.4883 149.491 77.2669 149.447 77.0603 149.361C76.8538 149.276 76.6661 149.15 76.508 148.992C76.3499 148.834 76.2245 148.647 76.1389 148.44C76.0534 148.234 76.0093 148.012 76.0093 147.789Z" fill="#0182FC"/>
<path d="M165.299 119.998L148.123 96.8365C146.989 95.307 144.699 95.307 143.565 96.8365L124.075 123.12L96.2379 85.5807C95.1038 84.0512 92.8142 84.0512 91.6802 85.5807L52.4844 138.437V147.789C52.4844 148.24 52.6637 148.673 52.9829 148.992C53.302 149.311 53.7349 149.491 54.1863 149.491H132.537C139.279 135.952 151.005 125.315 165.299 119.998Z" fill="#46CC8D"/>
<path d="M77.7118 149.49C77.4883 149.49 77.2669 149.446 77.0604 149.36C76.8539 149.274 76.6662 149.149 76.5082 148.991C76.3501 148.833 76.2248 148.645 76.1393 148.439C76.0538 148.232 76.0098 148.011 76.0099 147.787V106.711L52.4844 138.435V147.787C52.4841 148.011 52.5279 148.232 52.6134 148.439C52.6988 148.646 52.8242 148.833 52.9824 148.992C53.1405 149.15 53.3283 149.275 53.535 149.361C53.7417 149.446 53.9632 149.49 54.1868 149.49H77.7118Z" fill="#08B865"/>
<path d="M181.999 116.411C183.348 116.319 184.708 116.269 186.08 116.269C187.486 116.269 188.879 116.321 190.261 116.417V57.7591C190.261 54.5425 187.644 51.9258 184.428 51.9258H92.7768V60.1875H181.999V116.411ZM134.8 145.358H56.6152V72.2033H48.3535V147.788C48.3535 151.004 50.9703 153.62 54.1868 153.62H130.673C131.833 150.764 133.213 148.001 134.8 145.358Z" fill="#EAF6FF"/>
<path d="M162.017 88.1806C166.718 88.1806 170.528 84.37 170.528 79.6694C170.528 74.9688 166.718 71.1582 162.017 71.1582C157.316 71.1582 153.506 74.9688 153.506 79.6694C153.506 84.37 157.316 88.1806 162.017 88.1806Z" fill="#FE9901"/>
<path d="M268.509 38.5519V71.4616C268.509 71.8342 268.436 72.2032 268.293 72.5474C268.151 72.8917 267.942 73.2045 267.678 73.4679C267.415 73.7314 267.102 73.9404 266.758 74.0829C266.414 74.2255 266.045 74.2988 265.672 74.2987H217.599C217.226 74.2988 216.857 74.2255 216.513 74.0829C216.169 73.9404 215.856 73.7314 215.593 73.4679C215.329 73.2045 215.12 72.8917 214.978 72.5474C214.835 72.2032 214.762 71.8342 214.762 71.4616V38.5519C214.762 38.1793 214.835 37.8104 214.978 37.4661C215.12 37.1219 215.329 36.8091 215.593 36.5456C215.856 36.2822 216.169 36.0732 216.513 35.9307C216.857 35.7881 217.226 35.7148 217.599 35.7148H265.672C266.045 35.7148 266.414 35.7881 266.758 35.9307C267.102 36.0732 267.415 36.2822 267.678 36.5456C267.942 36.8091 268.151 37.1219 268.293 37.4661C268.436 37.8104 268.509 38.1793 268.509 38.5519Z" fill="#FED2A4"/>
<path d="M232.509 71.4611V38.5519C232.509 38.1793 232.583 37.8104 232.725 37.4661C232.868 37.1219 233.077 36.8091 233.34 36.5456C233.604 36.2822 233.916 36.0732 234.261 35.9307C234.605 35.7881 234.974 35.7148 235.346 35.7148H217.601C217.228 35.7148 216.859 35.7881 216.515 35.9307C216.171 36.0732 215.858 36.2822 215.594 36.5456C215.331 36.8091 215.122 37.1219 214.979 37.4661C214.837 37.8104 214.764 38.1793 214.764 38.5519V71.4611C214.764 71.8337 214.837 72.2026 214.979 72.5469C215.122 72.8911 215.331 73.2039 215.594 73.4674C215.858 73.7308 216.171 73.9398 216.515 74.0824C216.859 74.2249 217.228 74.2982 217.601 74.2982H235.346C234.974 74.2982 234.605 74.2249 234.261 74.0824C233.916 73.9398 233.604 73.7308 233.34 73.4674C233.077 73.2039 232.868 72.8911 232.725 72.5469C232.583 72.2026 232.509 71.8337 232.509 71.4611Z" fill="#FFBD86"/>
<path d="M253.113 55.4569C252.458 54.3223 250.82 54.3223 250.165 55.4569L241.573 70.3379L230.985 51.9974C230.329 50.8628 228.692 50.8628 228.036 51.9974L215.625 73.4944C216.153 74.0102 216.862 74.2991 217.6 74.2991H263.992L253.113 55.4569Z" fill="#0593FC"/>
<path d="M265.673 78.429H217.6C213.758 78.429 210.633 75.3028 210.633 71.4611V38.5519C210.633 34.7097 213.758 31.584 217.6 31.584H265.673C269.516 31.584 272.641 34.7102 272.641 38.5519V71.4611C272.641 75.3028 269.516 78.429 265.673 78.429ZM218.895 70.1673H264.38V39.8452H218.895V70.1673Z" fill="#C4E2FF"/>
<path d="M278.842 253.562L235.262 209.982C231.137 215.94 225.973 221.104 220.016 225.229L263.596 268.809C267.806 273.019 274.632 273.019 278.842 268.809C283.052 264.598 283.052 257.773 278.842 253.562Z" fill="#A2C7F8"/>
<path d="M281.646 258.488C277.441 261.435 271.607 261.04 267.851 257.283L228.593 218.025C225.964 220.687 223.092 223.099 220.016 225.229L263.596 268.809C267.806 273.019 274.632 273.019 278.842 268.809C281.639 266.011 282.566 262.06 281.646 258.488Z" fill="#8DB3DF"/>
<path d="M186.08 236.375C219.398 236.375 246.408 209.365 246.408 176.047C246.408 142.729 219.398 115.719 186.08 115.719C152.762 115.719 125.752 142.729 125.752 176.047C125.752 209.365 152.762 236.375 186.08 236.375Z" fill="#647FA0"/>
<path d="M138.643 176.046C138.643 156.02 151.123 138.865 168.71 131.918C176.729 124.441 186.786 119.122 197.959 116.891C194.048 116.11 190.069 115.718 186.08 115.719C152.762 115.719 125.752 142.729 125.752 176.047C125.752 209.365 152.762 236.375 186.08 236.375C190.147 236.375 194.118 235.97 197.959 235.203C186.786 232.972 176.728 227.652 168.709 220.175C151.123 213.227 138.643 196.072 138.643 176.046Z" fill="#5E6F90"/>
<path d="M202.718 216.023C224.818 206.879 235.32 181.55 226.175 159.45C217.03 137.35 191.701 126.847 169.601 135.992C147.501 145.137 136.999 170.466 146.145 192.566C155.29 214.666 180.619 225.168 202.718 216.023Z" fill="#C4E2FF"/>
<path d="M166.532 176.047C166.532 156.287 179.84 139.588 197.959 134.41C194.096 133.303 190.098 132.741 186.08 132.74C162.201 132.74 142.773 152.167 142.773 176.047C142.773 199.926 162.201 219.353 186.08 219.353C190.098 219.352 194.096 218.79 197.959 217.683C179.84 212.505 166.532 195.806 166.532 176.047Z" fill="#B3DAFE"/>
<path d="M186.082 223.484C159.925 223.484 138.645 202.203 138.645 176.047C138.645 149.89 159.925 128.609 186.082 128.609C212.238 128.609 233.518 149.89 233.518 176.047C233.518 202.203 212.238 223.484 186.082 223.484ZM186.082 136.871C164.48 136.871 146.906 154.445 146.906 176.047C146.906 197.648 164.48 215.222 186.082 215.222C207.683 215.222 225.257 197.648 225.257 176.047C225.257 154.445 207.682 136.871 186.082 136.871Z" fill="#799FCA"/>
<path d="M89.1969 17.0011V65.7866C89.197 66.1592 89.1237 66.5281 88.9811 66.8724C88.8386 67.2166 88.6296 67.5294 88.3661 67.7929C88.1027 68.0563 87.7899 68.2653 87.4457 68.4079C87.1014 68.5504 86.7325 68.6237 86.3599 68.6237H16.1711C15.7985 68.6237 15.4295 68.5504 15.0853 68.4079C14.741 68.2653 14.4282 68.0563 14.1648 67.7929C13.9013 67.5294 13.6923 67.2166 13.5498 66.8724C13.4072 66.5281 13.3339 66.1592 13.334 65.7866V17.0011C13.3339 16.6285 13.4072 16.2596 13.5498 15.9154C13.6923 15.5711 13.9013 15.2583 14.1648 14.9949C14.4282 14.7314 14.741 14.5224 15.0853 14.3799C15.4295 14.2373 15.7985 14.164 16.1711 14.1641H86.3599C86.7324 14.1641 87.1014 14.2374 87.4456 14.38C87.7898 14.5226 88.1025 14.7316 88.366 14.995C88.6294 15.2585 88.8384 15.5712 88.981 15.9154C89.1236 16.2596 89.1969 16.6286 89.1969 17.0011Z" fill="#FED402"/>
<path d="M31.0928 65.7871V17.0011C31.0928 16.6285 31.1661 16.2596 31.3086 15.9154C31.4512 15.5711 31.6602 15.2583 31.9236 14.9949C32.1871 14.7314 32.4999 14.5224 32.8441 14.3799C33.1884 14.2373 33.5573 14.164 33.9299 14.1641H16.1711C15.7985 14.164 15.4295 14.2373 15.0853 14.3799C14.741 14.5224 14.4282 14.7314 14.1648 14.9949C13.9013 15.2583 13.6923 15.5711 13.5498 15.9154C13.4072 16.2596 13.3339 16.6285 13.334 17.0011V65.7866C13.3339 66.1592 13.4072 66.5281 13.5498 66.8724C13.6923 67.2166 13.9013 67.5294 14.1648 67.7929C14.4282 68.0563 14.741 68.2653 15.0853 68.4079C15.4295 68.5504 15.7985 68.6237 16.1711 68.6237H33.9299C33.5574 68.6237 33.1884 68.5504 32.8442 68.4079C32.5 68.2654 32.1873 68.0565 31.9238 67.7931C31.6604 67.5297 31.4514 67.2169 31.3088 66.8728C31.1662 66.5286 31.0928 66.1597 31.0928 65.7871Z" fill="#FAC600"/>
<path d="M61.8463 41.3879C65.7633 41.3879 68.9387 38.2126 68.9387 34.2955C68.9387 30.3785 65.7633 27.2031 61.8463 27.2031C57.9293 27.2031 54.7539 30.3785 54.7539 34.2955C54.7539 38.2126 57.9293 41.3879 61.8463 41.3879Z" fill="white"/>
<path d="M72.6277 52.7363C57.6399 52.7363 44.7934 59.2945 39.3633 68.6236H86.3598C86.7324 68.6237 87.1013 68.5504 87.4456 68.4078C87.7898 68.2653 88.1026 68.0563 88.3661 67.7928C88.6295 67.5294 88.8385 67.2166 88.9811 66.8723C89.1236 66.5281 89.1969 66.1591 89.1969 65.7865V55.6301C84.2354 53.785 78.6042 52.7363 72.6277 52.7363Z" fill="#D88A55"/>
<path d="M20.9937 45.1719C18.4275 45.1714 15.8657 45.382 13.334 45.8014V65.7876C13.3339 66.1602 13.4072 66.5292 13.5498 66.8734C13.6923 67.2176 13.9013 67.5304 14.1648 67.7939C14.4282 68.0574 14.741 68.2663 15.0853 68.4089C15.4295 68.5514 15.7985 68.6248 16.1711 68.6247H57.0142C53.9679 55.2952 39.0059 45.1719 20.9937 45.1719Z" fill="#EA9B58"/>
<path d="M16.1711 68.6247H33.9299C33.5573 68.6248 33.1884 68.5514 32.8441 68.4089C32.4999 68.2663 32.1871 68.0574 31.9236 67.7939C31.6602 67.5304 31.4512 67.2177 31.3086 66.8734C31.1661 66.5292 31.0928 66.1602 31.0928 65.7876V46.2751C27.777 45.5389 24.3903 45.1689 20.9937 45.1719C18.4275 45.1714 15.8657 45.382 13.334 45.8014V65.7876C13.334 66.5401 13.6329 67.2617 14.1649 67.7937C14.697 68.3258 15.4186 68.6247 16.1711 68.6247Z" fill="#D88A55"/>
<path d="M86.3599 72.7551H16.1711C12.3288 72.7551 9.20312 69.6288 9.20312 65.7871V17.0011C9.20312 13.1589 12.3294 10.0332 16.1711 10.0332H86.3599C90.2021 10.0332 93.3278 13.1594 93.3278 17.0011V65.7866C93.3278 69.6288 90.2021 72.7551 86.3599 72.7551ZM17.4648 64.4934H85.0661V18.2949H17.4648V64.4934Z" fill="#B3DAFE"/>
</g>
<defs>
<clipPath id="clip0_316_223">
<rect width="282" height="282" fill="white"/>
</clipPath>
</defs>
</svg>
